<mxfile host="app.diagrams.net" modified="2024-03-24T15:16:07.954Z" agent="Mozilla/5.0 (Windows NT 10.0; Win64; x64; rv:124.0) Gecko/20100101 Firefox/124.0" etag="lUnZys3UZoEiijT2m38q" version="24.1.0" type="github">
  <diagram name="Seite-1" id="uhOXl8XrarWYXpvNMgZO">
    <mxGraphModel dx="1434" dy="782" grid="1" gridSize="10" guides="1" tooltips="1" connect="1" arrows="1" fold="1" page="1" pageScale="1" pageWidth="827" pageHeight="1169" math="0" shadow="0">
      <root>
        <mxCell id="0" />
        <mxCell id="1" parent="0" />
        <mxCell id="WchbofAxJvEK4TU0tgz5-1" value="&lt;font style=&quot;font-size: 25px;&quot;&gt;φABC&lt;/font&gt;" style="ellipse;whiteSpace=wrap;html=1;aspect=fixed;fontSize=20;" vertex="1" parent="1">
          <mxGeometry x="160" y="210" width="80" height="80" as="geometry" />
        </mxCell>
        <mxCell id="WchbofAxJvEK4TU0tgz5-3" value="-" style="ellipse;whiteSpace=wrap;html=1;aspect=fixed;fontSize=25;" vertex="1" parent="1">
          <mxGeometry x="40" y="280" width="80" height="80" as="geometry" />
        </mxCell>
        <mxCell id="WchbofAxJvEK4TU0tgz5-5" value="" style="endArrow=classic;html=1;rounded=0;curved=1;entryX=0;entryY=0.5;entryDx=0;entryDy=0;exitX=1;exitY=0.5;exitDx=0;exitDy=0;" edge="1" parent="1" source="WchbofAxJvEK4TU0tgz5-3" target="WchbofAxJvEK4TU0tgz5-1">
          <mxGeometry width="50" height="50" relative="1" as="geometry">
            <mxPoint x="130" y="320" as="sourcePoint" />
            <mxPoint x="160" y="319.66" as="targetPoint" />
          </mxGeometry>
        </mxCell>
        <mxCell id="WchbofAxJvEK4TU0tgz5-6" value="&lt;font style=&quot;font-size: 25px;&quot;&gt;φABD&lt;/font&gt;" style="ellipse;whiteSpace=wrap;html=1;aspect=fixed;fontSize=20;" vertex="1" parent="1">
          <mxGeometry x="160" y="100" width="80" height="80" as="geometry" />
        </mxCell>
        <mxCell id="WchbofAxJvEK4TU0tgz5-7" value="" style="endArrow=classic;html=1;rounded=0;curved=1;exitX=1;exitY=0.5;exitDx=0;exitDy=0;entryX=0;entryY=0.5;entryDx=0;entryDy=0;" edge="1" parent="1" source="WchbofAxJvEK4TU0tgz5-3" target="WchbofAxJvEK4TU0tgz5-6">
          <mxGeometry width="50" height="50" relative="1" as="geometry">
            <mxPoint x="70" y="350" as="sourcePoint" />
            <mxPoint x="110" y="350" as="targetPoint" />
          </mxGeometry>
        </mxCell>
        <mxCell id="WchbofAxJvEK4TU0tgz5-8" value="&lt;font style=&quot;font-size: 25px;&quot;&gt;φACE&lt;/font&gt;" style="ellipse;whiteSpace=wrap;html=1;aspect=fixed;fontSize=20;" vertex="1" parent="1">
          <mxGeometry x="160" y="470" width="80" height="80" as="geometry" />
        </mxCell>
        <mxCell id="WchbofAxJvEK4TU0tgz5-9" value="" style="endArrow=classic;html=1;rounded=0;curved=1;entryX=0;entryY=0.5;entryDx=0;entryDy=0;exitX=1;exitY=0.5;exitDx=0;exitDy=0;" edge="1" parent="1" source="WchbofAxJvEK4TU0tgz5-3" target="WchbofAxJvEK4TU0tgz5-8">
          <mxGeometry width="50" height="50" relative="1" as="geometry">
            <mxPoint x="120" y="320" as="sourcePoint" />
            <mxPoint x="110" y="350" as="targetPoint" />
          </mxGeometry>
        </mxCell>
        <mxCell id="WchbofAxJvEK4TU0tgz5-10" value="&lt;font style=&quot;font-size: 25px;&quot;&gt;φACB&lt;/font&gt;" style="ellipse;whiteSpace=wrap;html=1;aspect=fixed;fontSize=20;" vertex="1" parent="1">
          <mxGeometry x="160" y="350" width="80" height="80" as="geometry" />
        </mxCell>
        <mxCell id="WchbofAxJvEK4TU0tgz5-11" value="" style="endArrow=classic;html=1;rounded=0;curved=1;exitX=1;exitY=0.5;exitDx=0;exitDy=0;entryX=0;entryY=0.5;entryDx=0;entryDy=0;" edge="1" parent="1" source="WchbofAxJvEK4TU0tgz5-3" target="WchbofAxJvEK4TU0tgz5-10">
          <mxGeometry width="50" height="50" relative="1" as="geometry">
            <mxPoint x="290" y="380" as="sourcePoint" />
            <mxPoint x="330" y="380" as="targetPoint" />
          </mxGeometry>
        </mxCell>
        <mxCell id="WchbofAxJvEK4TU0tgz5-12" value="ABCD" style="ellipse;whiteSpace=wrap;html=1;aspect=fixed;fontSize=25;" vertex="1" parent="1">
          <mxGeometry x="280" y="140" width="80" height="80" as="geometry" />
        </mxCell>
        <mxCell id="WchbofAxJvEK4TU0tgz5-13" value="ABCE" style="ellipse;whiteSpace=wrap;html=1;aspect=fixed;fontSize=25;" vertex="1" parent="1">
          <mxGeometry x="280" y="240" width="80" height="80" as="geometry" />
        </mxCell>
        <mxCell id="WchbofAxJvEK4TU0tgz5-14" value="ABDC" style="ellipse;whiteSpace=wrap;html=1;aspect=fixed;fontSize=25;" vertex="1" parent="1">
          <mxGeometry x="280" y="50" width="80" height="80" as="geometry" />
        </mxCell>
        <mxCell id="WchbofAxJvEK4TU0tgz5-15" value="ACEB" style="ellipse;whiteSpace=wrap;html=1;aspect=fixed;fontSize=25;" vertex="1" parent="1">
          <mxGeometry x="280" y="530" width="80" height="80" as="geometry" />
        </mxCell>
        <mxCell id="WchbofAxJvEK4TU0tgz5-16" value="ACBE" style="ellipse;whiteSpace=wrap;html=1;aspect=fixed;fontSize=25;" vertex="1" parent="1">
          <mxGeometry x="280" y="330" width="80" height="80" as="geometry" />
        </mxCell>
        <mxCell id="WchbofAxJvEK4TU0tgz5-17" value="ACBD" style="ellipse;whiteSpace=wrap;html=1;aspect=fixed;fontSize=25;" vertex="1" parent="1">
          <mxGeometry x="280" y="430" width="80" height="80" as="geometry" />
        </mxCell>
        <mxCell id="WchbofAxJvEK4TU0tgz5-18" value="" style="endArrow=classic;html=1;rounded=0;curved=1;exitX=1;exitY=0.5;exitDx=0;exitDy=0;entryX=0;entryY=0.5;entryDx=0;entryDy=0;" edge="1" parent="1" source="WchbofAxJvEK4TU0tgz5-1" target="WchbofAxJvEK4TU0tgz5-12">
          <mxGeometry width="50" height="50" relative="1" as="geometry">
            <mxPoint x="260" y="280" as="sourcePoint" />
            <mxPoint x="300" y="280" as="targetPoint" />
          </mxGeometry>
        </mxCell>
        <mxCell id="WchbofAxJvEK4TU0tgz5-19" value="" style="endArrow=classic;html=1;rounded=0;curved=1;exitX=1;exitY=0.5;exitDx=0;exitDy=0;entryX=0;entryY=0.5;entryDx=0;entryDy=0;" edge="1" parent="1" source="WchbofAxJvEK4TU0tgz5-1" target="WchbofAxJvEK4TU0tgz5-13">
          <mxGeometry width="50" height="50" relative="1" as="geometry">
            <mxPoint x="260" y="280" as="sourcePoint" />
            <mxPoint x="300" y="280" as="targetPoint" />
          </mxGeometry>
        </mxCell>
        <mxCell id="WchbofAxJvEK4TU0tgz5-20" value="" style="endArrow=classic;html=1;rounded=0;curved=1;exitX=1;exitY=0.5;exitDx=0;exitDy=0;entryX=0;entryY=0.5;entryDx=0;entryDy=0;" edge="1" parent="1" source="WchbofAxJvEK4TU0tgz5-6" target="WchbofAxJvEK4TU0tgz5-14">
          <mxGeometry width="50" height="50" relative="1" as="geometry">
            <mxPoint x="260" y="110" as="sourcePoint" />
            <mxPoint x="300" y="110" as="targetPoint" />
          </mxGeometry>
        </mxCell>
        <mxCell id="WchbofAxJvEK4TU0tgz5-21" value="" style="endArrow=classic;html=1;rounded=0;curved=1;exitX=1;exitY=0.5;exitDx=0;exitDy=0;entryX=0;entryY=0.5;entryDx=0;entryDy=0;" edge="1" parent="1" source="WchbofAxJvEK4TU0tgz5-8" target="WchbofAxJvEK4TU0tgz5-15">
          <mxGeometry width="50" height="50" relative="1" as="geometry">
            <mxPoint x="260" y="610" as="sourcePoint" />
            <mxPoint x="300" y="610" as="targetPoint" />
          </mxGeometry>
        </mxCell>
        <mxCell id="WchbofAxJvEK4TU0tgz5-22" value="" style="endArrow=classic;html=1;rounded=0;curved=1;exitX=1;exitY=0.5;exitDx=0;exitDy=0;entryX=0;entryY=0.5;entryDx=0;entryDy=0;" edge="1" parent="1" source="WchbofAxJvEK4TU0tgz5-10" target="WchbofAxJvEK4TU0tgz5-16">
          <mxGeometry width="50" height="50" relative="1" as="geometry">
            <mxPoint x="260" y="380" as="sourcePoint" />
            <mxPoint x="300" y="380" as="targetPoint" />
          </mxGeometry>
        </mxCell>
        <mxCell id="WchbofAxJvEK4TU0tgz5-23" value="" style="endArrow=classic;html=1;rounded=0;curved=1;exitX=1;exitY=0.5;exitDx=0;exitDy=0;entryX=0;entryY=0.5;entryDx=0;entryDy=0;" edge="1" parent="1" source="WchbofAxJvEK4TU0tgz5-10" target="WchbofAxJvEK4TU0tgz5-17">
          <mxGeometry width="50" height="50" relative="1" as="geometry">
            <mxPoint x="260" y="450" as="sourcePoint" />
            <mxPoint x="300" y="450" as="targetPoint" />
          </mxGeometry>
        </mxCell>
        <mxCell id="WchbofAxJvEK4TU0tgz5-24" value="BCDE" style="ellipse;whiteSpace=wrap;html=1;aspect=fixed;fontSize=25;" vertex="1" parent="1">
          <mxGeometry x="400" y="140" width="80" height="80" as="geometry" />
        </mxCell>
        <mxCell id="WchbofAxJvEK4TU0tgz5-25" value="BCED" style="ellipse;whiteSpace=wrap;html=1;aspect=fixed;fontSize=25;" vertex="1" parent="1">
          <mxGeometry x="400" y="240" width="80" height="80" as="geometry" />
        </mxCell>
        <mxCell id="WchbofAxJvEK4TU0tgz5-26" value="BDCE" style="ellipse;whiteSpace=wrap;html=1;aspect=fixed;fontSize=25;" vertex="1" parent="1">
          <mxGeometry x="400" y="50" width="80" height="80" as="geometry" />
        </mxCell>
        <mxCell id="WchbofAxJvEK4TU0tgz5-27" value="CEBD" style="ellipse;whiteSpace=wrap;html=1;aspect=fixed;fontSize=25;" vertex="1" parent="1">
          <mxGeometry x="400" y="530" width="80" height="80" as="geometry" />
        </mxCell>
        <mxCell id="WchbofAxJvEK4TU0tgz5-28" value="CBED" style="ellipse;whiteSpace=wrap;html=1;aspect=fixed;fontSize=25;" vertex="1" parent="1">
          <mxGeometry x="400" y="330" width="80" height="80" as="geometry" />
        </mxCell>
        <mxCell id="WchbofAxJvEK4TU0tgz5-29" value="CBDE" style="ellipse;whiteSpace=wrap;html=1;aspect=fixed;fontSize=25;" vertex="1" parent="1">
          <mxGeometry x="400" y="430" width="80" height="80" as="geometry" />
        </mxCell>
        <mxCell id="WchbofAxJvEK4TU0tgz5-30" value="" style="endArrow=classic;html=1;rounded=0;curved=1;exitX=1;exitY=0.5;exitDx=0;exitDy=0;" edge="1" parent="1">
          <mxGeometry width="50" height="50" relative="1" as="geometry">
            <mxPoint x="360" y="179.71" as="sourcePoint" />
            <mxPoint x="400" y="179.71" as="targetPoint" />
          </mxGeometry>
        </mxCell>
        <mxCell id="WchbofAxJvEK4TU0tgz5-31" value="" style="endArrow=classic;html=1;rounded=0;curved=1;exitX=1;exitY=0.5;exitDx=0;exitDy=0;" edge="1" parent="1">
          <mxGeometry width="50" height="50" relative="1" as="geometry">
            <mxPoint x="360" y="279.71000000000004" as="sourcePoint" />
            <mxPoint x="400" y="279.71000000000004" as="targetPoint" />
          </mxGeometry>
        </mxCell>
        <mxCell id="WchbofAxJvEK4TU0tgz5-32" value="" style="endArrow=classic;html=1;rounded=0;curved=1;exitX=1;exitY=0.5;exitDx=0;exitDy=0;" edge="1" parent="1">
          <mxGeometry width="50" height="50" relative="1" as="geometry">
            <mxPoint x="360" y="90" as="sourcePoint" />
            <mxPoint x="400" y="90" as="targetPoint" />
          </mxGeometry>
        </mxCell>
        <mxCell id="WchbofAxJvEK4TU0tgz5-33" value="" style="endArrow=classic;html=1;rounded=0;curved=1;exitX=1;exitY=0.5;exitDx=0;exitDy=0;" edge="1" parent="1">
          <mxGeometry width="50" height="50" relative="1" as="geometry">
            <mxPoint x="360" y="569.71" as="sourcePoint" />
            <mxPoint x="400" y="569.71" as="targetPoint" />
          </mxGeometry>
        </mxCell>
        <mxCell id="WchbofAxJvEK4TU0tgz5-34" value="" style="endArrow=classic;html=1;rounded=0;curved=1;exitX=1;exitY=0.5;exitDx=0;exitDy=0;" edge="1" parent="1">
          <mxGeometry width="50" height="50" relative="1" as="geometry">
            <mxPoint x="360" y="369.71" as="sourcePoint" />
            <mxPoint x="400" y="369.71" as="targetPoint" />
          </mxGeometry>
        </mxCell>
        <mxCell id="WchbofAxJvEK4TU0tgz5-35" value="" style="endArrow=classic;html=1;rounded=0;curved=1;exitX=1;exitY=0.5;exitDx=0;exitDy=0;" edge="1" parent="1">
          <mxGeometry width="50" height="50" relative="1" as="geometry">
            <mxPoint x="360" y="469.71000000000004" as="sourcePoint" />
            <mxPoint x="400" y="469.71000000000004" as="targetPoint" />
          </mxGeometry>
        </mxCell>
        <mxCell id="WchbofAxJvEK4TU0tgz5-36" value="CDEF" style="ellipse;whiteSpace=wrap;html=1;aspect=fixed;fontSize=25;" vertex="1" parent="1">
          <mxGeometry x="520" y="140" width="80" height="80" as="geometry" />
        </mxCell>
        <mxCell id="WchbofAxJvEK4TU0tgz5-37" value="CEDF" style="ellipse;whiteSpace=wrap;html=1;aspect=fixed;fontSize=25;" vertex="1" parent="1">
          <mxGeometry x="520" y="240" width="80" height="80" as="geometry" />
        </mxCell>
        <mxCell id="WchbofAxJvEK4TU0tgz5-38" value="DCEF" style="ellipse;whiteSpace=wrap;html=1;aspect=fixed;fontSize=25;" vertex="1" parent="1">
          <mxGeometry x="520" y="50" width="80" height="80" as="geometry" />
        </mxCell>
        <mxCell id="WchbofAxJvEK4TU0tgz5-39" value="EBDF" style="ellipse;whiteSpace=wrap;html=1;aspect=fixed;fontSize=25;" vertex="1" parent="1">
          <mxGeometry x="520" y="530" width="80" height="80" as="geometry" />
        </mxCell>
        <mxCell id="WchbofAxJvEK4TU0tgz5-40" value="BEDF" style="ellipse;whiteSpace=wrap;html=1;aspect=fixed;fontSize=25;" vertex="1" parent="1">
          <mxGeometry x="520" y="330" width="80" height="80" as="geometry" />
        </mxCell>
        <mxCell id="WchbofAxJvEK4TU0tgz5-41" value="BDEF" style="ellipse;whiteSpace=wrap;html=1;aspect=fixed;fontSize=25;" vertex="1" parent="1">
          <mxGeometry x="520" y="430" width="80" height="80" as="geometry" />
        </mxCell>
        <mxCell id="WchbofAxJvEK4TU0tgz5-42" value="" style="endArrow=classic;html=1;rounded=0;curved=1;exitX=1;exitY=0.5;exitDx=0;exitDy=0;" edge="1" parent="1">
          <mxGeometry width="50" height="50" relative="1" as="geometry">
            <mxPoint x="480" y="179.71" as="sourcePoint" />
            <mxPoint x="520" y="179.71" as="targetPoint" />
          </mxGeometry>
        </mxCell>
        <mxCell id="WchbofAxJvEK4TU0tgz5-43" value="" style="endArrow=classic;html=1;rounded=0;curved=1;exitX=1;exitY=0.5;exitDx=0;exitDy=0;" edge="1" parent="1">
          <mxGeometry width="50" height="50" relative="1" as="geometry">
            <mxPoint x="480" y="279.71000000000004" as="sourcePoint" />
            <mxPoint x="520" y="279.71000000000004" as="targetPoint" />
          </mxGeometry>
        </mxCell>
        <mxCell id="WchbofAxJvEK4TU0tgz5-44" value="" style="endArrow=classic;html=1;rounded=0;curved=1;exitX=1;exitY=0.5;exitDx=0;exitDy=0;" edge="1" parent="1">
          <mxGeometry width="50" height="50" relative="1" as="geometry">
            <mxPoint x="480" y="90" as="sourcePoint" />
            <mxPoint x="520" y="90" as="targetPoint" />
          </mxGeometry>
        </mxCell>
        <mxCell id="WchbofAxJvEK4TU0tgz5-45" value="" style="endArrow=classic;html=1;rounded=0;curved=1;exitX=1;exitY=0.5;exitDx=0;exitDy=0;" edge="1" parent="1">
          <mxGeometry width="50" height="50" relative="1" as="geometry">
            <mxPoint x="480" y="569.71" as="sourcePoint" />
            <mxPoint x="520" y="569.71" as="targetPoint" />
          </mxGeometry>
        </mxCell>
        <mxCell id="WchbofAxJvEK4TU0tgz5-46" value="" style="endArrow=classic;html=1;rounded=0;curved=1;exitX=1;exitY=0.5;exitDx=0;exitDy=0;" edge="1" parent="1">
          <mxGeometry width="50" height="50" relative="1" as="geometry">
            <mxPoint x="480" y="369.71" as="sourcePoint" />
            <mxPoint x="520" y="369.71" as="targetPoint" />
          </mxGeometry>
        </mxCell>
        <mxCell id="WchbofAxJvEK4TU0tgz5-47" value="" style="endArrow=classic;html=1;rounded=0;curved=1;exitX=1;exitY=0.5;exitDx=0;exitDy=0;" edge="1" parent="1">
          <mxGeometry width="50" height="50" relative="1" as="geometry">
            <mxPoint x="480" y="469.71000000000004" as="sourcePoint" />
            <mxPoint x="520" y="469.71000000000004" as="targetPoint" />
          </mxGeometry>
        </mxCell>
        <mxCell id="WchbofAxJvEK4TU0tgz5-48" value="DEF&lt;span style=&quot;left: 187.593px; top: 579.67px; font-size: 30px; font-family: sans-serif; transform: scaleX(1.01917);&quot; role=&quot;presentation&quot; dir=&quot;ltr&quot;&gt;ψ&lt;/span&gt;" style="ellipse;whiteSpace=wrap;html=1;aspect=fixed;fontSize=25;" vertex="1" parent="1">
          <mxGeometry x="670" y="350" width="80" height="80" as="geometry" />
        </mxCell>
        <mxCell id="WchbofAxJvEK4TU0tgz5-49" value="EDF&lt;span style=&quot;left: 187.593px; top: 579.67px; font-size: 30px; font-family: sans-serif; transform: scaleX(1.01917);&quot; role=&quot;presentation&quot; dir=&quot;ltr&quot;&gt;ψ&lt;/span&gt;" style="ellipse;whiteSpace=wrap;html=1;aspect=fixed;fontSize=25;" vertex="1" parent="1">
          <mxGeometry x="670" y="210" width="80" height="80" as="geometry" />
        </mxCell>
        <mxCell id="WchbofAxJvEK4TU0tgz5-50" value="CEF&lt;span style=&quot;left: 187.593px; top: 579.67px; font-size: 30px; font-family: sans-serif; transform: scaleX(1.01917);&quot; role=&quot;presentation&quot; dir=&quot;ltr&quot;&gt;ψ&lt;/span&gt;" style="ellipse;whiteSpace=wrap;html=1;aspect=fixed;fontSize=25;" vertex="1" parent="1">
          <mxGeometry x="640" y="100" width="80" height="80" as="geometry" />
        </mxCell>
        <mxCell id="WchbofAxJvEK4TU0tgz5-51" value="BDF&lt;span style=&quot;left: 187.593px; top: 579.67px; font-size: 30px; font-family: sans-serif; transform: scaleX(1.01917);&quot; role=&quot;presentation&quot; dir=&quot;ltr&quot;&gt;ψ&lt;/span&gt;" style="ellipse;whiteSpace=wrap;html=1;aspect=fixed;fontSize=25;" vertex="1" parent="1">
          <mxGeometry x="640" y="470" width="80" height="80" as="geometry" />
        </mxCell>
        <mxCell id="WchbofAxJvEK4TU0tgz5-52" value="" style="endArrow=classic;html=1;rounded=0;curved=1;exitX=1;exitY=0.5;exitDx=0;exitDy=0;entryX=0;entryY=0.5;entryDx=0;entryDy=0;" edge="1" parent="1" source="WchbofAxJvEK4TU0tgz5-36" target="WchbofAxJvEK4TU0tgz5-48">
          <mxGeometry width="50" height="50" relative="1" as="geometry">
            <mxPoint x="600" y="170" as="sourcePoint" />
            <mxPoint x="630" y="170" as="targetPoint" />
          </mxGeometry>
        </mxCell>
        <mxCell id="WchbofAxJvEK4TU0tgz5-53" value="" style="endArrow=classic;html=1;rounded=0;curved=1;exitX=1;exitY=0.5;exitDx=0;exitDy=0;entryX=0;entryY=0.5;entryDx=0;entryDy=0;" edge="1" parent="1" source="WchbofAxJvEK4TU0tgz5-37" target="WchbofAxJvEK4TU0tgz5-49">
          <mxGeometry width="50" height="50" relative="1" as="geometry">
            <mxPoint x="600" y="269.71" as="sourcePoint" />
            <mxPoint x="630" y="270" as="targetPoint" />
          </mxGeometry>
        </mxCell>
        <mxCell id="WchbofAxJvEK4TU0tgz5-54" value="" style="endArrow=classic;html=1;rounded=0;curved=1;exitX=1;exitY=0.5;exitDx=0;exitDy=0;entryX=0;entryY=0.5;entryDx=0;entryDy=0;" edge="1" parent="1" source="WchbofAxJvEK4TU0tgz5-38" target="WchbofAxJvEK4TU0tgz5-50">
          <mxGeometry width="50" height="50" relative="1" as="geometry">
            <mxPoint x="600" y="179.70999999999998" as="sourcePoint" />
            <mxPoint x="630" y="180" as="targetPoint" />
          </mxGeometry>
        </mxCell>
        <mxCell id="WchbofAxJvEK4TU0tgz5-55" value="" style="endArrow=classic;html=1;rounded=0;curved=1;exitX=1;exitY=0.5;exitDx=0;exitDy=0;entryX=0;entryY=0.5;entryDx=0;entryDy=0;" edge="1" parent="1" source="WchbofAxJvEK4TU0tgz5-39" target="WchbofAxJvEK4TU0tgz5-51">
          <mxGeometry width="50" height="50" relative="1" as="geometry">
            <mxPoint x="600" y="659.71" as="sourcePoint" />
            <mxPoint x="630" y="640" as="targetPoint" />
          </mxGeometry>
        </mxCell>
        <mxCell id="WchbofAxJvEK4TU0tgz5-57" value="" style="endArrow=classic;html=1;rounded=0;curved=1;exitX=1;exitY=0.5;exitDx=0;exitDy=0;entryX=0;entryY=0.5;entryDx=0;entryDy=0;" edge="1" parent="1" source="WchbofAxJvEK4TU0tgz5-40" target="WchbofAxJvEK4TU0tgz5-49">
          <mxGeometry width="50" height="50" relative="1" as="geometry">
            <mxPoint x="560" y="420" as="sourcePoint" />
            <mxPoint x="600" y="420" as="targetPoint" />
          </mxGeometry>
        </mxCell>
        <mxCell id="WchbofAxJvEK4TU0tgz5-58" value="" style="endArrow=classic;html=1;rounded=0;curved=1;exitX=1;exitY=0.5;exitDx=0;exitDy=0;entryX=0;entryY=0.5;entryDx=0;entryDy=0;" edge="1" parent="1" source="WchbofAxJvEK4TU0tgz5-41" target="WchbofAxJvEK4TU0tgz5-48">
          <mxGeometry width="50" height="50" relative="1" as="geometry">
            <mxPoint x="560" y="350" as="sourcePoint" />
            <mxPoint x="600" y="350" as="targetPoint" />
          </mxGeometry>
        </mxCell>
        <mxCell id="WchbofAxJvEK4TU0tgz5-59" value="" style="endArrow=classic;html=1;rounded=0;curved=1;exitX=0.5;exitY=0;exitDx=0;exitDy=0;entryX=0.5;entryY=0;entryDx=0;entryDy=0;" edge="1" parent="1" source="WchbofAxJvEK4TU0tgz5-50" target="WchbofAxJvEK4TU0tgz5-3">
          <mxGeometry width="50" height="50" relative="1" as="geometry">
            <mxPoint x="270" y="380" as="sourcePoint" />
            <mxPoint x="310" y="380" as="targetPoint" />
            <Array as="points">
              <mxPoint x="610" y="20" />
              <mxPoint x="110" y="50" />
            </Array>
          </mxGeometry>
        </mxCell>
        <mxCell id="WchbofAxJvEK4TU0tgz5-60" value="" style="endArrow=classic;html=1;rounded=0;curved=1;exitX=1;exitY=0;exitDx=0;exitDy=0;entryX=0;entryY=0;entryDx=0;entryDy=0;" edge="1" parent="1" source="WchbofAxJvEK4TU0tgz5-49" target="WchbofAxJvEK4TU0tgz5-3">
          <mxGeometry width="50" height="50" relative="1" as="geometry">
            <mxPoint x="270" y="310" as="sourcePoint" />
            <mxPoint x="310" y="310" as="targetPoint" />
            <Array as="points">
              <mxPoint x="770" />
              <mxPoint x="60" y="30" />
            </Array>
          </mxGeometry>
        </mxCell>
      </root>
    </mxGraphModel>
  </diagram>
</mxfile>
